<?xml version="1.0" encoding="utf-8"?>
<!-- Generator: Adobe Illustrator 19.0.0, SVG Export Plug-In . SVG Version: 6.00 Build 0)  -->
<svg version="1.1" id="Capa_1" xmlns="http://www.w3.org/2000/svg" xmlns:xlink="http://www.w3.org/1999/xlink" x="0px" y="0px"
	 viewBox="-173 -88 264 88" style="enable-background:new -173 -88 264 88;" xml:space="preserve">
<style type="text/css">
	.st0{fill:#4A4A4A;}
	.st1{fill:#4A4A4A;stroke:#FFFFFF;stroke-width:1.5;}
	.st2{fill:#FFFFFF;}
</style>
<title>default-skin 2</title>
<g>
	<g>
		<path id="Shape" class="st0" d="M-106-28.5v3.8c-6.3,0.8-9.2,5.8-10,9.7c2.2-2.8,5.6-5.1,10-5.1v3.6l6-5.9L-106-28.5z"/>
		<g>
			<path id="Shape_1_" class="st0" d="M-160-59v-5h2v3h3v2H-160z M-160-73h5v2h-3v3h-2V-73z M-142-73v5h-2v-3h-3v-2H-142z M-142-59
				h-5v-2h3v-3h2V-59z"/>
		</g>
		<g>
			<path class="st0" d="M-111-64v5h-2v-3h-3v-2H-111z M-111-68h-5v-2h3v-3h2V-68z M-103-68v-5h2v3h3v2H-103z M-103-64h5v2h-3v3h-2
				V-64z"/>
		</g>
		<path class="st0" d="M-152.4-22l-5.7-5.7l1.4-1.4l5.7,5.7l5.7-5.7l1.4,1.4l-5.7,5.7l5.7,5.7l-1.4,1.4l-5.7-5.7l-5.7,5.7l-1.4-1.4
			L-152.4-22z"/>
		<path class="st0" d="M-61.2-23l-1.8-1.5l3-3.5h-10v-2h10l-3-3.5l1.8-1.5l5.2,6L-61.2-23z"/>
		<path class="st0" d="M-20.8-23l1.8-1.5l-3-3.5h10v-2h-10l3-3.5l-1.8-1.5l-5.2,6L-20.8-23z"/>
		<g>
			<path id="Rectangle-11" class="st0" d="M-12-59.5l-3.3-3.3l-1.4,1.4l3.3,3.3L-12-59.5z"/>
			<path id="Oval-1" class="st1" d="M-20.5-61c3,0,5.5-2.5,5.5-5.5s-2.5-5.5-5.5-5.5s-5.5,2.5-5.5,5.5S-23.5-61-20.5-61z"/>
			<path class="st2" d="M-23-67h5v1h-5V-67z"/>
		</g>
		<g>
			<path class="st0" d="M-56-59.5l-1.4,1.4l-3.3-3.3l1.4-1.4L-56-59.5z"/>
			<path class="st1" d="M-64.5-61c3,0,5.5-2.5,5.5-5.5s-2.5-5.5-5.5-5.5s-5.5,2.5-5.5,5.5S-67.5-61-64.5-61z"/>
			<path class="st2" d="M-67-67h5v1h-5V-67z"/>
			<path class="st2" d="M-64-69l-0.1,5l-1,0l0.1-5L-64-69z"/>
		</g>
	</g>
</g>
</svg>
